<svg width="121" height="40" viewBox="0 0 121 40" fill="none" xmlns="http://www.w3.org/2000/svg">
<path d="M57.8309 5.79419H55.5808L50.1723 11.6547V5.79419H48.2627V17.1281H50.1723V14.2455L52.1001 12.125L55.824 17.1281H58.1229L53.4441 10.6351L57.8309 5.79419Z" fill="white"/>
<path d="M67.5979 5.79419L62.5928 17.1281H64.5835L65.67 14.5698H71.3846L72.4631 17.1281H74.5105L69.5561 5.79419H67.5979ZM66.3816 12.869L68.5202 7.83352L70.6569 12.869H66.3816Z" fill="white"/>
<path d="M115.237 5.79419H113.327V17.1281H120.145V15.3969H115.237V5.79419Z" fill="white"/>
<path d="M100.728 5.79419L95.7251 17.1281H97.7158L98.8003 14.5698H104.517L105.601 17.1281H107.643L102.686 5.79419H100.728ZM99.5119 12.869L101.655 7.83352L103.791 12.869H99.5119Z" fill="white"/>
<path d="M88.1454 13.9394L82.074 5.79419H80.1948V17.1281H82.1044V8.99915L88.1454 17.1281H90.0246V5.79419H88.1454V13.9394Z" fill="white"/>
<path d="M69.6983 23.1893L64.4702 35.0321H66.5521L67.6853 32.3603H73.6574L74.7905 35.0321H76.9231L71.7457 23.1893H69.6983ZM68.4293 30.5824L70.6592 25.3219L72.8891 30.5824H68.4293Z" fill="white"/>
<path d="M56.5356 28.3323H50.2574V23.1893H48.2627V35.0321H50.2574V30.1263H56.5356V35.0321H58.5303V23.1893H56.5356V28.3323Z" fill="white"/>
<path d="M85.889 28.9587L82.5057 23.1893H80.4927L84.9079 31.1581V35.0321H86.8864V31.0912L91.2347 23.1893H89.2055L85.889 28.9587Z" fill="white"/>
<path d="M100.033 23.1893L94.8047 35.0321H96.8866L98.0198 32.3603H103.992L105.125 35.0321H107.258L102.08 23.1893H100.033ZM98.7638 30.5824L100.994 25.3219L103.224 30.5824H98.7638Z" fill="white"/>
<path d="M110.625 24.9834H114.365V35.0321H116.359V24.9834H120.116V23.1893H110.625V24.9834Z" fill="white"/>
<path fill-rule="evenodd" clip-rule="evenodd" d="M37.815 2.8772C31.9362 11.9711 25.1188 17.9898 7.00195 16.6782L13.4889 29.5386C20.6813 29.5386 30.9874 35.7336 36.8277 39.6744C38.6339 31.2799 36.0898 27.1789 30.3813 24.6227C29.0697 25.172 25.3316 26.4755 20.9104 27.2154C32.4571 23.3658 41.326 18.3445 37.815 2.8772Z" fill="#34B5CF"/>
<path fill-rule="evenodd" clip-rule="evenodd" d="M0.295898 2.51019C2.75688 5.05632 3.34882 8.44778 4.08063 10.4871C5.71858 15.0523 7.70926 16.2402 22.838 13.8826C13.8577 12.5569 15.8747 -4.57477 0.295898 2.51019Z" fill="#34B5CF"/>
</svg>
